<svg xmlns="http://www.w3.org/2000/svg" data-name="Layer 1" width="854.55666" height="577.89722" style=""><rect id="backgroundrect" width="100%" height="100%" x="0" y="0" fill="none" stroke="none"/><g class="currentLayer" style=""><title>Layer 1</title><rect x="151.55665588378906" y="268" width="110" height="123" fill="#ccc" id="svg_1"/><polygon points="95.557 576 39.557 576 33.557 528 101.557 528 95.557 576" fill="#e86c20" id="svg_2" class="" fill-opacity="1"/><path d="M208.00708557128905,541.2323183984375 L206.11733557128906,567.0672683984375 a8.22428,8.22428 0 0 0 8.69988,8.80928 l13.26993,-0.80373 a4.19488,4.19488 0 0 0 3.8153,-5.2044 L224.53650557128907,540.4056083984375 z" fill="#e6e6e6" id="svg_3" class="" stroke="#dadada" stroke-opacity="1"/><path d="M319.00264557128907,556.5093783984375 c15.6176,3.6534 26.77411,8.84633 34.103,15.87434 a15.03539,15.03539 0 0 0 9.62359,4.1254 c4.59653,0.24174000000000004 8.35492,-0.27349 11.17944,-1.53511 h0.00045000000000000015 a4.43019,4.43019 0 0 0 2.62469,-3.65076 a4.50814,4.50814 0 0 0 -1.88846,-4.16687 l-37.03954,-26.3546 l-15.73318,6.2940000000000005 l-3.67016,3.67016 a3.63415,3.63415 0 0 0 0.8002,5.74346 z" fill="#e6e6e6" id="svg_4" class="" stroke="#dadada" stroke-opacity="1"/><path d="M270.94021557128906,134.69454839843752 l-105.87329,-0.9803099999999999 c0.26622999999999997,-15.42064 3.85407,-30.56331 11.69669,-44.11378 c5.15076,-8.89946 5.03948,-18.58474 3.7982,-26.7444 c-1.91555,-12.592 2.53886,-25.47548 12.43708,-33.49119 a39.916,39.916 0 0 1 26.84266,-8.88134 l2.0558,0.08566000000000003 a40.00777,40.00777 0 0 1 32.87054,19.76983 a33.32736,33.32736 0 0 1 3.96134,20.30073 c-0.6710600000000001,6.6012900000000005 0.93466,13.26982 4.6906,20.00186 C269.89977557128907,95.42418839843748 271.30298557128907,114.34040839843749 270.94021557128906,134.69454839843752 z" fill="#2f2e41" id="svg_5"/><path d="M341.77486557128907,542.1763283984375 l-20.77878,5.42055 l-101.1836,-220.4357 l6.324,215.01515 H205.35768557128904 c-22.2035,-101.15879 -62.29053,-217.90681 -44.26782,-254.76585 l107.50757,-6.324 z" fill="#6c63ff" id="svg_6"/><circle cx="218.9090576171875" cy="69.68505096435547" r="28.006179809570312" fill="#ffb9b9" id="svg_7" class=""/><path d="M243.30153557128904,121.18027839843751 l-46.07467,-2.71028 c4.51541,-10.36377 6.31912,-20.34363 4.51712,-29.813 H236.07413557128905 C235.99633557128908,95.92760839843748 239.61444557128908,108.50441839843751 243.30153557128904,121.18027839843751 z" fill="#ffb9b9" id="svg_8"/><polygon points="273.21099853515625,289.2170104980469 172.0279998779297,296.44500732421875 182.41700744628906,117.11499786376953 200.03399658203125,112.14600372314453 219.90899658203125,116.66300201416016 239.78399658203125,106.7249984741211 252.4320068359375,111.24299621582031 273.21099853515625,289.2170104980469 " fill="#6c63ff" id="svg_9" class=""/><path d="M188.19261557128908,418.4070983984375 l-69.112,-15.809940000000001 c20.5506,-68.14818 57.57349,-224.05122 45.623,-279.61 l36.137,-16.26165 z" fill="#e6e6e6" id="svg_10" class="" stroke="#dadada" stroke-opacity="1"/><path d="M154.76588557128906,221.4604483984375 l-26.19932,-16.26165 l22.3434,-65.4394 a30.87113,30.87113 0 0 1 13.49426,-16.02839 l7.52674,-4.3575800000000005 l-4.51713,65.95 z" fill="#e6e6e6" id="svg_11" class="" stroke="#dadada" stroke-opacity="1"/><path d="M332.28890557128904,403.5006083984375 c-21.81327,12.62013 -76.33909,19.65509 -100.28018,10.8411 c-1.7616900000000002,-61.57277 -5.21664,-235.739 5.87226,-309.42306 l39.7507,16.26165 l-3.6137,48.78495 C255.0139155712891,211.6981183984375 310.1976155712891,357.05398839843747 332.28890557128904,403.5006083984375 z" fill="#e6e6e6" id="svg_12" class="" stroke="#dadada" stroke-opacity="1"/><polygon points="329.127 213.33 304.734 205.199 272.211 168.158 277.632 121.18 331.837 197.068 329.127 213.33" fill="#e6e6e6" id="svg_13" class="" stroke="#dadada" stroke-opacity="1"/><path d="M252.68118557128906,248.49393839843748 a6.78537,6.78537 0 0 0 8.10524,5.11221 l20.706,-4.68917 l-2.99259,-13.21656 l-20.70643,4.68828 a6.77693,6.77693 0 0 0 -5.11221,8.10524 z" fill="#ffb9b9" id="svg_14"/><path d="M243.30153557128904,62.457608398437486 c-15.55574,-6.3965 -30.9192,-6.85936 -46.07467,-0.90342 l-6.324,-22.585630000000002 h57.8192 z" fill="#2f2e41" id="svg_15"/><path d="M271.30771557128907,232.2049783984375 l11.74452,21.6822 c19.7541,-5.50955 36.87412,-22.87878 53.30208,-43.3644 l-4.51713,-14.4548 l-28.00617,7.2274 z" fill="#e6e6e6" id="svg_16" class="" stroke="#dadada" stroke-opacity="1"/><path d="M262.72517557128907,188.4854383984375 h-3.6137 c0,-51.11057 -10.52349,-86.7288 -20.77877,-86.7288 l-0.90343,-3.6137 c9.197,0 15.06047,14.824 18.35964,27.26023 C260.2619355712891,142.2625483984375 262.72517557128907,164.6655383984375 262.72517557128907,188.4854383984375 z" fill="#3f3d56" id="svg_17"/><path d="M179.6100755712891,175.83748839843747 H175.99633557128908 c0,-46.80915 10.59628,-75.8877 26.19933,-75.8877 l-0.90343,3.6137 C190.49969557128907,103.56348839843753 179.6100755712891,125.9113483984375 179.6100755712891,175.83748839843747 z" fill="#3f3d56" id="svg_18"/><circle cx="260.9183349609375" cy="189.38885498046875" r="9.034250259399414" fill="#3f3d56" id="svg_19"/><path d="M165.15527557128905,197.5196883984375 h-3.6137 c0,-12.95189 7.29489,-23.48905 16.26165,-23.48905 v3.6137 C170.82903557128907,177.64433839843753 165.15527557128905,186.5603683984375 165.15527557128905,197.5196883984375 z" fill="#3f3d56" id="svg_20"/><path d="M194.06487557128906,197.5196883984375 h-3.6137 c0,-10.95932 -5.67376,-19.87535 -12.64795,-19.87535 V174.0306083984375 C186.76998557128906,174.0306083984375 194.06487557128906,184.5677983984375 194.06487557128906,197.5196883984375 z" fill="#3f3d56" id="svg_21"/><circle cx="192.25802612304688" cy="198.42311096191406" r="3.6136999130249023" fill="#3f3d56" id="svg_22"/><circle cx="163.34841918945312" cy="198.42311096191406" r="3.6136999130249023" fill="#3f3d56" id="svg_23"/><polygon points="118.177 165.193 140.724 169.219 192.258 242.495 164.88 236.053 118.177 165.193" fill="#6c63ff" id="svg_24"/><path d="M114.17793557128908,164.29587839843748 a1.91768,1.91768 0 0 0 -1.5735000000000001,2.971 l48.17135,73.08788 a1.91143,1.91143 0 0 0 1.16016,0.81035 l22.4127,5.27321 a1.91439,1.91439 0 0 0 2.00447,-2.9648000000000003 L133.46393557128908,168.27174839843752 a1.90335,1.90335 0 0 0 -1.2294100000000001,-0.783 l-17.69531,-3.16023 A2.07607,2.07607 0 0 0 114.17793557128908,164.29587839843748 z" fill="#3f3d56" id="svg_25"/><path d="M144.22740557128907,216.55292839843747 l1.33881,13.48521 l21.12638,-2.09711 a6.77573,6.77573 0 0 0 -1.33837,-13.48521 z" fill="#ffb9b9" id="svg_26"/><path d="M125.85672557128908,214.99089839843748 a17.42694,17.42694 0 0 0 17.40637,17.31065 h3.4738700000000002 l2.529,-21.07565 l-20.93979,-7.53839 z" fill="#e6e6e6" id="svg_27" class="" stroke="#dadada" stroke-opacity="1"/><rect x="442.5566711425781" width="412" height="217" fill="#7d7bf2" id="svg_28" class="" fill-opacity="1" opacity="1"/><path d="M454.55666557128905,204.99999839843753 h388 v-193 h-388 z" fill="#ffffff" id="svg_29" class="" fill-opacity="1" stroke="#919191" stroke-opacity="1"/><rect x="484.5566711425781" y="40" width="138" height="138" fill="#3f3d56" id="svg_30"/><circle cx="589.556640625" cy="99" r="4" fill="#6c63ff" id="svg_31"/><circle cx="574.556640625" cy="85" r="4" fill="#6c63ff" id="svg_32"/><path d="M572.556665571289,98.99999839843753 a7.9501100000000005,7.9501100000000005 0 0 0 -4.16785,1.181 a25.12434,25.12434 0 0 0 -3.8647400000000003,-4.53583 c0.017080000000000005,-0.21344000000000005 0.03259000000000001,-0.4273100000000001 0.03259000000000001,-0.6451400000000002 a7.99417,7.99417 0 0 0 -13.54682,-5.7569 a24.50673,24.50673 0 0 0 -6.46264,-0.05639000000000001 c0.0014600000000000004,-0.06269000000000002 0.009460000000000001,-0.12366000000000002 0.009460000000000001,-0.18671000000000004 a8,8 0 1 0 -13.2594,6.01813 a25.14047,25.14047 0 0 0 -3.62439,3.8336200000000002 a7.99939,7.99939 0 1 0 -5.11621,14.14825 l0.025330000000000005,-0.0012800000000000003 c-0.013130000000000003,0.3325800000000001 -0.025330000000000005,0.66546 -0.025330000000000005,1.00128 a25.045,25.045 0 0 0 0.7236300000000001,5.973 a14.99382,14.99382 0 1 0 19.56885,18.57819 a24.97131,24.97131 0 0 0 16.34241,-2.42426 a8.00091,8.00091 0 1 0 10.492,-10.492 a24.85715,24.85715 0 0 0 2.84784,-10.63617 l0.025270000000000004,0.0012800000000000003 a8,8 0 0 0 0,-16 z" fill="#6c63ff" id="svg_33"/><rect x="530.556640625" y="37" width="40" height="6" fill="#e6e6e6" id="svg_34" class="" stroke="#b6b6b6" stroke-opacity="1"/><rect x="660.556640625" y="40" width="138" height="138" fill="#3f3d56" id="svg_35"/><circle cx="755.7566528320312" cy="131.8000030517578" r="1.7999999523162842" fill="#6c63ff" id="svg_36"/><circle cx="749.0066528320312" cy="125.5" r="1.7999999523162842" fill="#6c63ff" id="svg_37"/><path d="M748.1066655712891,131.79999839843748 a3.57749,3.57749 0 0 0 -1.87553,0.53144 a11.30621,11.30621 0 0 0 -1.7391400000000001,-2.04113 c0.0076900000000000015,-0.09600000000000003 0.014670000000000002,-0.19228000000000003 0.014670000000000002,-0.29031000000000007 a3.59737,3.59737 0 0 0 -6.09607,-2.5906000000000002 a11.02775,11.02775 0 0 0 -2.9081900000000003,-0.025380000000000007 c0.0006600000000000002,-0.028210000000000002 0.004260000000000001,-0.05565000000000001 0.004260000000000001,-0.08400000000000002 a3.6,3.6 0 1 0 -5.96673,2.70816 a11.31327,11.31327 0 0 0 -1.6310000000000002,1.72513 a3.59972,3.59972 0 1 0 -2.30229,6.36671 l0.011400000000000002,-0.0005800000000000001 c-0.005910000000000001,0.14966000000000002 -0.011400000000000002,0.29946000000000006 -0.011400000000000002,0.45058000000000004 a11.27051,11.27051 0 0 0 0.32563000000000003,2.68783 a6.74722,6.74722 0 1 0 8.806000000000001,8.36019 a11.23714,11.23714 0 0 0 7.35409,-1.0909200000000001 a3.60041,3.60041 0 1 0 4.7214,-4.7214 a11.18577,11.18577 0 0 0 1.28153,-4.78628 l0.011370000000000003,0.0005800000000000001 a3.6,3.6 0 0 0 0,-7.2 z" fill="#6c63ff" id="svg_38"/><circle cx="769.8784790039062" cy="97.64170837402344" r="1.7999999523162842" fill="#6c63ff" id="svg_39"/><circle cx="774.1128540039062" cy="89.4366683959961" r="1.7999999523162842" fill="#6c63ff" id="svg_40"/><path d="M767.8047655712891,90.2781383984375 a3.57751,3.57751 0 0 0 -1.01994,-1.6612500000000001 a11.3064,11.3064 0 0 0 1.49326,-2.22732 c0.09454000000000003,-0.01863 0.18907000000000002,-0.038000000000000006 0.28342000000000006,-0.06458000000000001 a3.59737,3.59737 0 0 0 0.8411200000000001,-6.57006 a11.02787,11.02787 0 0 0 -0.7639100000000001,-2.80619 c0.027330000000000007,-0.007000000000000002 0.05472000000000001,-0.011000000000000003 0.08200000000000002,-0.018670000000000003 a3.6,3.6 0 1 0 -4.22419,-5.00922 a11.3133,11.3133 0 0 0 -2.10265,-1.10227 a3.59973,3.59973 0 1 0 -6.75243,-0.49024 l0.0036500000000000013,0.010820000000000001 c-0.14566,0.03488000000000001 -0.29134000000000004,0.07020000000000001 -0.4368000000000001,0.11117000000000002 a11.27,11.27 0 0 0 -2.49892,1.042 a6.74722,6.74722 0 1 0 -5.66009,10.74251 a11.2371,11.2371 0 0 0 3.04357,6.783 a3.60041,3.60041 0 1 0 5.82448,3.26477 a11.1857,11.1857 0 0 0 4.95446,-0.06389000000000002 l0.0025200000000000005,0.011100000000000002 a3.6,3.6 0 1 0 6.93042,-1.95173 z" fill="#6c63ff" id="svg_41"/><circle cx="700.1618041992188" cy="73.18148803710938" r="1.7999999523162842" fill="#6c63ff" id="svg_42"/><circle cx="690.9580688476562" cy="73.91886901855469" r="1.7999999523162842" fill="#6c63ff" id="svg_43"/><path d="M695.0039755712891,78.83118839843749 a3.57754,3.57754 0 0 0 -0.8720700000000001,1.74343 a11.306000000000001,11.306000000000001 0 0 0 -2.68,-0.09180000000000002 c-0.06574000000000002,-0.07044 -0.13212,-0.14048000000000002 -0.20451000000000003,-0.20657 a3.59737,3.59737 0 0 0 -6.02337,2.75542 a11.02762,11.02762 0 0 0 -1.97953,2.13065 c-0.020390000000000005,-0.019510000000000003 -0.038220000000000004,-0.04067000000000001 -0.05918000000000001,-0.05979000000000001 a3.6,3.6 0 1 0 -2.02291,6.23247 a11.31355,11.31355 0 0 0 0.17439000000000002,2.3676500000000003 a3.59972,3.59972 0 1 0 3.14968,5.99292 l0.007260000000000002,-0.008810000000000002 c0.10655,0.10527000000000002 0.21348000000000003,0.21033000000000002 0.3250800000000001,0.31221000000000004 a11.26967,11.26967 0 0 0 2.20457,1.57173 a6.74722,6.74722 0 1 0 12.11144,-0.8667200000000002 a11.23714,11.23714 0 0 0 4.15267,-6.16668 a3.60041,3.60041 0 1 0 -0.30355000000000004,-6.670170000000001 a11.18565,11.18565 0 0 0 -2.67072,-4.17348 l0.008090000000000002,-0.008000000000000002 a3.6,3.6 0 1 0 -5.31735,-4.85445 z" fill="#6c63ff" id="svg_44"/><rect x="706.556640625" y="37" width="40" height="6" fill="#e6e6e6" id="svg_45" class="" stroke="#b6b6b6" stroke-opacity="1"/><path d="M25.17642557128906,510.2430083984375 c14.41965,19.311 44.352,21.34353 44.352,21.34353 s6.55352,-29.27679 -7.86613,-48.5878 s-44.352,-21.34353 -44.352,-21.34353 S10.756775571289069,490.9319983984375 25.17642557128906,510.2430083984375 z" fill="#04b804" id="svg_46" class="" fill-opacity="1"/><path d="M98.63314557128905,517.5026083984375 c-9.51509,12.742750000000001 -29.26658,14.08395 -29.26658,14.08395 s-4.32447,-19.31887 5.19063,-32.06162 s29.26658,-14.084 29.26658,-14.084 S108.14824557128907,504.75982839843755 98.63314557128905,517.5026083984375 z" fill="#009900" id="svg_47" class="" fill-opacity="1"/><rect y="575.656494140625" width="519.556640625" height="2.24072003364563" fill="#3f3d56" id="svg_48"/><rect fill="#ffb9b9" stroke-dashoffset="" fill-rule="nonzero" id="svg_49" x="-140" y="408" width="3" height="11" style="color: rgb(232, 108, 32);"/></g></svg>